# xmcd
#
# Track frame offsets:
# 150
# 15507
# 32448
# 44222
# 62566
# 75373
# 85744
# 99929
# 111314
# 129024
# 141536
# 161610
# 172838
# 183815
# 198015
# 212160
# 227863
# 247233
# 270674
# 285255
#
# Disc length: 4014 seconds
#
#
# Revision: 2
# Processed by: cddbd v1.5.1PL0 Copyright (c) Steve Scherf et al.
# Submitted via: FreeRIP 2.941 
#
DISCID=040fac14
DTITLE=Cowboy Forever Various - Cowboy Forever
DYEAR=2000
DGENRE=Country
TTITLE0=Billy Ray Cyrus - Achy Break Heart
TTITLE1=Alan Jackson - I´ll Try
TTITLE2=Alan jackson - Little Bitty
TTITLE3=Shania Twain - Any Man of mine
TTITLE4=Pam Tillis - mi Loca - Crasy Life
TTITLE5=George Strait - Heartland
TTITLE6=Terri Clark - Better Things To Do
TTITLE7=Daron Norwod - Bad Dog No Biscuit
TTITLE8=Alan Jackson - Chottahoochee
TTITLE9=Clay Walker - Only on Days Thatend In Y
TTITLE10=Garth Brooks - Aint Going Down - Til the Sun Comes Up
TTITLE11=Rick Trevino - I Want a Girl In a Pick-Up Truck
TTITLE12=Alan Jackson - Tall, Tall Trees
TTITLE13=Chris Ward - When You get To BeYou
TTITLE14=Faith Hill - Lets go to Vegas
TTITLE15=Shania Twain - Im Hold on to Love - to Save my Life
TTITLE16=Shania Twain - You Win My Love
TTITLE17=Alabama - Dixieland Delight
TTITLE18=Bellamy Brothers - Get a Little Crasy
TTITLE19=Chery Ascheratt - Walking Away a Winner
EXTD=Cawboy Forever
EXTT0=
EXTT1=
EXTT2=
EXTT3=
EXTT4=
EXTT5=
EXTT6=
EXTT7=
EXTT8=
EXTT9=
EXTT10=
EXTT11=
EXTT12=
EXTT13=
EXTT14=
EXTT15=
EXTT16=
EXTT17=
EXTT18=
EXTT19=
PLAYORDER=
